<svg xmlns="http://www.w3.org/2000/svg" width="1200" height="700" viewBox="0 0 1200 700" role="img" aria-labelledby="title desc">
  <title id="title">Support, Payments and AI Chat Panels</title>
  <desc id="desc">Illustration of support tickets, payment table, dead-link finder and AI chat sections in the admin UI.</desc>
  <rect width="1200" height="700" fill="#f1f5f9" />
  <rect x="24" y="24" width="1152" height="652" rx="18" fill="#ffffff" stroke="#cbd5e1" />

  <rect x="50" y="54" width="360" height="594" rx="14" fill="#fafafa" stroke="#d1d5db" />
  <text x="76" y="92" fill="#111827" font-family="Arial, sans-serif" font-size="24" font-weight="700">Support</text>
  <text x="76" y="118" fill="#4b5563" font-family="Arial, sans-serif" font-size="14">Tickets + payment actions + dead-link scan</text>

  <rect x="76" y="148" width="308" height="96" rx="10" fill="#ffffff" stroke="#e5e7eb" />
  <text x="92" y="176" fill="#111827" font-family="Arial, sans-serif" font-size="15" font-weight="700">Stripe payments</text>
  <text x="92" y="198" fill="#374151" font-family="Arial, sans-serif" font-size="13">Search by email, reload, download receipts</text>
  <rect x="258" y="164" width="108" height="24" rx="8" fill="#ede9fe" />
  <text x="292" y="181" fill="#5b21b6" font-family="Arial, sans-serif" font-size="12">Reload</text>

  <rect x="76" y="258" width="308" height="144" rx="10" fill="#ffffff" stroke="#e5e7eb" />
  <text x="92" y="286" fill="#111827" font-family="Arial, sans-serif" font-size="15" font-weight="700">Dead-link finder</text>
  <text x="92" y="308" fill="#374151" font-family="Arial, sans-serif" font-size="13">Classifies: internal / pseudo-external / external</text>
  <text x="92" y="330" fill="#374151" font-family="Arial, sans-serif" font-size="13">Status: reachable / broken / unchecked</text>
  <rect x="92" y="346" width="90" height="22" rx="8" fill="#dcfce7" />
  <text x="114" y="361" fill="#047857" font-family="Arial, sans-serif" font-size="11">Reachable</text>
  <rect x="188" y="346" width="78" height="22" rx="8" fill="#fee2e2" />
  <text x="210" y="361" fill="#b91c1c" font-family="Arial, sans-serif" font-size="11">Broken</text>
  <rect x="272" y="346" width="92" height="22" rx="8" fill="#fef3c7" />
  <text x="292" y="361" fill="#b45309" font-family="Arial, sans-serif" font-size="11">Unchecked</text>

  <rect x="76" y="418" width="308" height="204" rx="10" fill="#ffffff" stroke="#e5e7eb" />
  <text x="92" y="446" fill="#111827" font-family="Arial, sans-serif" font-size="15" font-weight="700">Ticket stream</text>
  <text x="92" y="468" fill="#374151" font-family="Arial, sans-serif" font-size="13">Bug: payment lookup failed in test mode</text>
  <text x="92" y="490" fill="#6b7280" font-family="Arial, sans-serif" font-size="12">Status: will-fix • Priority: moderate</text>
  <text x="92" y="524" fill="#374151" font-family="Arial, sans-serif" font-size="13">Comment: webhook secret now configured</text>
  <rect x="92" y="542" width="270" height="62" rx="8" fill="#f9fafb" stroke="#e5e7eb" />
  <text x="104" y="565" fill="#6b7280" font-family="Arial, sans-serif" font-size="12">Add comment…</text>

  <rect x="434" y="54" width="718" height="286" rx="14" fill="#f5f3ff" stroke="#c4b5fd" />
  <text x="460" y="92" fill="#4c1d95" font-family="Arial, sans-serif" font-size="24" font-weight="700">Sales overview</text>
  <text x="460" y="118" fill="#6d28d9" font-family="Arial, sans-serif" font-size="14">Charges, VAT/net breakdown, receipt downloads</text>
  <rect x="460" y="146" width="666" height="168" rx="10" fill="#ffffff" stroke="#ddd6fe" />
  <rect x="460" y="146" width="666" height="34" rx="10" fill="#ede9fe" />
  <text x="480" y="168" fill="#5b21b6" font-family="Arial, sans-serif" font-size="13" font-weight="700">Date • Description • Amount • VAT • Net • Status</text>
  <text x="480" y="204" fill="#1f2937" font-family="Arial, sans-serif" font-size="13">2026-03-19 • AI i praktiken • 1490 SEK • 298 • 1192 • succeeded</text>
  <text x="480" y="232" fill="#1f2937" font-family="Arial, sans-serif" font-size="13">2026-03-18 • Startguide PDF • 390 SEK • 22 • 368 • succeeded</text>
  <text x="480" y="260" fill="#1f2937" font-family="Arial, sans-serif" font-size="13">2026-03-18 • GraphQL course • 990 SEK • 198 • 792 • pending</text>

  <rect x="434" y="366" width="718" height="282" rx="14" fill="#ecfeff" stroke="#67e8f9" />
  <text x="460" y="404" fill="#155e75" font-family="Arial, sans-serif" font-size="24" font-weight="700">Chat / Support assistant</text>
  <text x="460" y="430" fill="#0e7490" font-family="Arial, sans-serif" font-size="14">Ask for payments, access checks, docs and debug hints</text>

  <rect x="460" y="454" width="666" height="166" rx="10" fill="#ffffff" stroke="#a5f3fc" />
  <rect x="480" y="474" width="506" height="44" rx="10" fill="#f1f5f9" />
  <text x="494" y="500" fill="#111827" font-family="Arial, sans-serif" font-size="13">Why do receipts fail for one customer?</text>

  <rect x="500" y="530" width="610" height="62" rx="10" fill="#e0f2fe" />
  <text x="514" y="556" fill="#0f172a" font-family="Arial, sans-serif" font-size="13">Stripe key is valid. Charge exists but receipt URL returned HTML wrapper.</text>
  <text x="514" y="576" fill="#0f172a" font-family="Arial, sans-serif" font-size="13">Use invoice_pdf fallback and verify webhook metadata for product details.</text>

  <rect x="460" y="628" width="512" height="22" rx="8" fill="#cffafe" />
  <text x="474" y="644" fill="#155e75" font-family="Arial, sans-serif" font-size="12">Intents: payments, receipts, access, docs, debug, dead-links</text>
</svg>
